<?xml version="1.0" encoding="UTF-8" standalone="no" ?>
<!DOCTYPE svg PUBLIC "-//W3C//DTD SVG 1.1//EN" "http://www.w3.org/Graphics/SVG/1.1/DTD/svg11.dtd">
<svg xmlns="http://www.w3.org/2000/svg" xmlns:xlink="http://www.w3.org/1999/xlink" version="1.1" width="1080" height="1080" viewBox="0 0 1080 1080" xml:space="preserve">
<desc>Created with Fabric.js 5.2.4</desc>
<defs>
</defs>
<g transform="matrix(1 0 0 1 540 540)" id="d7070484-2eb5-4ace-861c-78c37cd7f18b"  >
<rect style="stroke: none; stroke-width: 1; stroke-dasharray: none; stroke-linecap: butt; stroke-dashoffset: 0; stroke-linejoin: miter; stroke-miterlimit: 4; fill: rgb(255,255,255); fill-rule: nonzero; opacity: 1; visibility: hidden;" vector-effect="non-scaling-stroke"  x="-540" y="-540" rx="0" ry="0" width="1080" height="1080" />
</g>
<g transform="matrix(1 0 0 1 540 540)" id="95e8aec6-d57e-47ec-add3-9f2b7ee428ae"  >
</g>
<g transform="matrix(1 0 0 1 514.6 935.86)"  >
<ellipse style="stroke: none; stroke-width: 1; stroke-dasharray: none; stroke-linecap: butt; stroke-dashoffset: 0; stroke-linejoin: miter; stroke-miterlimit: 4; fill: rgb(63,61,86); fill-rule: nonzero; opacity: 1;" vector-effect="non-scaling-stroke"  cx="0" cy="0" rx="250.30368" ry="8.93942" />
</g>
<g transform="matrix(1 0 0 1 397.92 446.86)"  >
<circle style="stroke: none; stroke-width: 1; stroke-dasharray: none; stroke-linecap: butt; stroke-dashoffset: 0; stroke-linejoin: miter; stroke-miterlimit: 4; fill: rgb(255,101,132); fill-rule: nonzero; opacity: 1;" vector-effect="non-scaling-stroke"  cx="0" cy="0" r="89.56313" />
</g>
<g transform="matrix(1 0 0 1 292.4 905.45)"  >
<ellipse style="stroke: none; stroke-width: 1; stroke-dasharray: none; stroke-linecap: butt; stroke-dashoffset: 0; stroke-linejoin: miter; stroke-miterlimit: 4; fill: rgb(63,61,86); fill-rule: nonzero; opacity: 1;" vector-effect="non-scaling-stroke"  cx="0" cy="0" rx="75.48575" ry="6.95811" />
</g>
<g transform="matrix(1 0 0 1 540 540)"  >
<path style="stroke: none; stroke-width: 1; stroke-dasharray: none; stroke-linecap: butt; stroke-dashoffset: 0; stroke-linejoin: miter; stroke-miterlimit: 4; fill: rgb(63,61,86); fill-rule: nonzero; opacity: 1;" vector-effect="non-scaling-stroke"  transform=" translate(-555.38, -435.22)" d="M 489.91461 846.47337 C 489.91461 846.47337 552.56606 679.40283 518.02744 576.5901900000001 C 483.4888199999999 473.77755000000025 456.17920999999996 477.79367000000013 456.17920999999996 477.79367000000013 C 456.17920999999996 477.79367000000013 409.59220999999997 465.7453200000001 351.76012999999995 501.08716000000015 C 293.9280499999999 536.4290000000002 278.66676999999993 546.8709100000001 245.73458999999994 532.4128900000002 C 212.80240999999995 517.9548700000003 206.37658999999994 495.46459000000016 126.05425999999994 497.87426000000016 C 126.05425999999994 497.87426000000016 168.62510999999995 474.5807800000002 210.39274999999992 495.46459000000016 C 252.1603899999999 516.3484000000001 280.27320999999995 527.5935400000002 322.84406999999993 495.46459000000016 C 365.4149299999999 463.3356400000001 424.05026 421.568 481.07915 446.468 C 481.07915 446.468 439.31151 405.50358 425.65671000000003 405.50358 C 412.00191000000007 405.50358 347.74401 399.07779 326.86019000000005 377.39075 C 326.86019000000005 377.39075 297.14091 356.50694000000004 244.12819000000005 407.91326000000004 C 191.11547000000007 459.31958000000003 203.96700000000004 459.31958000000003 156.57680000000005 455.30346000000003 C 109.18660000000006 451.28734000000003 72.23827 427.9938 72.23827 427.9938 C 72.23827 427.9938 127.66069999999999 450.48406 161.3961 439.23893000000004 C 195.1315 427.9938000000001 224.04755 385.42293000000006 253.76682999999997 370.96493000000004 C 283.48610999999994 356.50693 301.15702999999996 337.22954000000004 341.31822 358.11335 C 341.31822 358.11335 324.45052 289.03611 292.32157 294.65868 C 260.19262000000003 300.28125 307.58282 278.5942 307.58282 278.5942 C 307.58282 278.5942 298.74736 161.32353999999998 281.87966 153.2913 C 265.01196 145.25906000000003 275.45387 124.37530000000001 244.12815 120.35913000000001 C 244.12815 120.35913000000001 282.68289 115.53978000000001 289.9119 142.04613 C 297.14091 168.55248 346.94078 311.52634 346.94078 311.52634 C 346.94078 311.52634 377.46329000000003 372.57134 411.19868 358.11334 C 444.93407 343.65533999999997 398.3471 262.52972 398.3471 262.52972 L 340.515 236.02333 C 340.515 236.02333 383.88909 234.41688 410.39547 259.31681 C 436.90184999999997 284.21673999999996 438.50829999999996 364.53911999999997 438.50829999999996 364.53911999999997 C 438.50829999999996 364.53911999999997 505.17587 374.17780999999997 521.2402999999999 410.32287999999994 C 521.2402999999999 410.32287999999994 531.6822 378.1939299999999 511.60160999999994 358.91655999999995 C 506.58145999999994 354.09721999999994 501.31030999999996 345.71356 496.22740999999996 335.8489799999999 C 476.78941 298.1247599999999 470.19510999999994 255.12254999999993 476.31007999999997 213.12776999999994 C 479.30246 192.57752999999994 481.14408 172.48405999999994 477.86620999999997 167.74930999999995 C 470.63721 157.30739999999994 440.11469999999997 93.04949999999995 437.70502999999997 76.18179999999995 C 435.29535999999996 59.314099999999954 440.11469999999997 23.972259999999956 440.11469999999997 23.972259999999956 C 440.11469999999997 23.972259999999956 440.91792 67.34633999999996 450.55661 81.00113999999996 C 460.1953 94.65593999999997 487.50489999999996 162.12673999999998 487.50489999999996 162.12673999999998 C 487.50489999999996 162.12673999999998 487.50489999999996 247.26846 509.99515999999994 289.03609 C 532.48542 330.80372 575.85951 377.3907 573.44984 407.91321 L 573.44984 425.58413 C 573.44984 425.58413 621.64326 379.80038 618.43037 364.53913 C 615.21748 349.27788 611.20137 313.13281 580.67885 291.44577 C 550.15633 269.75872999999996 530.0758 235.2201 551.76284 185.42023 C 573.44988 135.62036 573.44984 126.7849 573.44984 126.7849 L 558.99184 188.63313 C 558.99184 188.63313 550.9596 244.05555999999999 573.44984 263.33293 C 595.94008 282.61029999999994 625.6593799999999 317.95214999999996 625.6593799999999 317.95214999999996 L 619.2335899999999 202.28792999999996 L 640.11741 248.07167999999996 C 640.11741 248.07167999999996 685.09794 190.23956999999996 738.1107099999999 170.96219999999994 C 791.1234799999999 151.68482999999992 824.05569 84.214 824.05569 84.214 L 869.0362200000001 48.87215 L 832.08792 93.0495 C 832.08792 93.0495 820.84279 145.25904 757.3881200000001 182.20734 C 693.9334500000001 219.15563999999998 652.969 273.77484 650.55936 307.51024 C 648.1497199999999 341.24564000000004 645.74 370.96491 645.74 370.96491 C 645.74 370.96491 764.61711 366.94879999999995 791.12349 314.73924999999997 C 817.6298699999999 262.5297 820.03955 158.91384999999997 845.74271 142.04614999999998 C 871.44587 125.17845 919.63929 104.29462999999998 919.63929 104.29462999999998 L 865.8232899999999 148.47194 C 865.8232899999999 148.47194 854.5781599999999 184.61701 856.9878299999999 210.32017 C 859.3974999999999 236.02333 839.31694 260.12 839.31694 260.12 L 824.05569 305.10053 L 807.188 343.65531 C 807.188 343.65531 876.26524 345.26175 912.41031 386.22616999999997 C 948.55538 427.19058999999993 1038.51643 439.23893 1038.51643 439.23893 L 987.91334 452.89374 C 987.91334 452.89374 939.7199 436.82926 893.93615 407.11 C 848.1524 377.39074000000005 852.97174 350.88434 795.94285 380.60362000000003 C 738.9139600000001 410.32290000000006 661.00127 435.22283000000004 661.00127 435.22283000000004 C 661.00127 435.22283000000004 705.9818 414.339 787.10739 464.94209 C 868.23298 515.5451800000001 746.9462100000001 456.10663 710.80114 475.384 C 674.65607 494.66137000000003 657.78837 470.56466 643.33034 518.7580800000001 C 628.87231 566.9515000000001 602.3659299999999 698.6802 632.88844 772.5767800000001 L 663.41094 846.4733700000002 Z" stroke-linecap="round" />
</g>
<g transform="matrix(1 0 0 1 728.78 336.16)"  >
<path style="stroke: none; stroke-width: 1; stroke-dasharray: none; stroke-linecap: butt; stroke-dashoffset: 0; stroke-linejoin: miter; stroke-miterlimit: 4; fill: rgb(0,0,0); fill-rule: nonzero; opacity: 0.1;" vector-effect="non-scaling-stroke"  transform=" translate(-788.78, -246.16)" d="M 792.34193 314.73922 C 770.80739 357.15599 688.30379 367.76275999999996 658.1114600000001 370.24946 C 657.2648100000001 381.13811 656.70657 388.02406 656.70657 388.02406 C 656.70657 388.02406 775.5837 384.0079 802.09 331.79836 C 828.5963 279.58882 831.0061000000001 175.97296 856.70934 159.10526000000002 C 859.43522 157.31639 862.41604 155.48215000000002 865.56346 153.63260000000002 C 866.44641 150.39073000000002 867.04183 148.47193000000001 867.04183 148.47193000000001 L 920.85783 104.29463000000001 C 920.85783 104.29463000000001 872.66452 125.17842000000002 846.9612900000001 142.04612 C 821.2580600000001 158.91382 818.84838 262.52969 792.34193 314.73922 Z" stroke-linecap="round" />
</g>
<g transform="matrix(1 0 0 1 700.67 247)"  >
<path style="stroke: none; stroke-width: 1; stroke-dasharray: none; stroke-linecap: butt; stroke-dashoffset: 0; stroke-linejoin: miter; stroke-miterlimit: 4; fill: rgb(0,0,0); fill-rule: nonzero; opacity: 0.1;" vector-effect="non-scaling-stroke"  transform=" translate(-760.67, -157)" d="M 653.82615 233.59276 C 653.6507799999999 253.36876 651.08406 265.13076 651.08406 265.13076 C 651.08406 265.13076 696.04575 207.32339000000002 749.0440600000001 188.03376000000003 C 752.1763100000001 186.05219000000002 755.35406 184.10120000000003 758.6065100000001 182.20731000000004 C 822.06123 145.25897000000003 833.30641 93.04943000000003 833.30641 93.04943000000003 L 870.25469 48.87213000000003 L 825.27412 84.214 C 825.27412 84.214 792.34193 151.68481 739.32932 170.96215999999998 C 703.19349 184.10241 670.79559 215.15179 653.82615 233.59276 Z" stroke-linecap="round" />
</g>
<g transform="matrix(1 0 0 1 546.77 474.2)"  >
<path style="stroke: none; stroke-width: 1; stroke-dasharray: none; stroke-linecap: butt; stroke-dashoffset: 0; stroke-linejoin: miter; stroke-miterlimit: 4; fill: rgb(0,0,0); fill-rule: nonzero; opacity: 0.1;" vector-effect="non-scaling-stroke"  transform=" translate(-606.77, -384.2)" d="M 584.41647 424.97233 L 584.41647 442.64325 C 584.41647 442.64325 632.60992 396.85952000000003 629.39691 381.59825 C 626.93991 369.92699 623.9981 346.04601 609.10467 325.75408 C 615.81793 341.08907999999997 617.86122 356.04733 619.6488300000001 364.53908 C 621.9528300000001 375.48284 597.8236400000001 402.12041 583.9860000000001 416.31727 C 584.471452319498 419.1750937404286 584.6159532783249 422.08044014948143 584.41647 424.97233 Z" stroke-linecap="round" />
</g>
<g transform="matrix(1 0 0 1 482.76 429.66)"  >
<path style="stroke: none; stroke-width: 1; stroke-dasharray: none; stroke-linecap: butt; stroke-dashoffset: 0; stroke-linejoin: miter; stroke-miterlimit: 4; fill: rgb(0,0,0); fill-rule: nonzero; opacity: 0.1;" vector-effect="non-scaling-stroke"  transform=" translate(-542.76, -339.66)" d="M 519.76941 303.70533 C 520.15109 304.51941 520.54466 305.32047 520.96174 306.0952 C 533.27892 328.96992 551.8485499999999 353.28544999999997 565.74227 375.62068 C 554.5133 353.5018 534.97163 328.2085 519.76941 303.70533 Z" stroke-linecap="round" />
</g>
<g transform="matrix(1 0 0 1 498.37 292.02)"  >
<path style="stroke: none; stroke-width: 1; stroke-dasharray: none; stroke-linecap: butt; stroke-dashoffset: 0; stroke-linejoin: miter; stroke-miterlimit: 4; fill: rgb(0,0,0); fill-rule: nonzero; opacity: 0.1;" vector-effect="non-scaling-stroke"  transform=" translate(-558.37, -202.02)" d="M 558.92846 269.50927 C 552.4512599999999 253.63874 551.3840299999999 234.75427000000002 558.82538 212.62516000000002 C 558.7322539961967 204.60543441108211 559.1950293301996 196.58889591765495 560.21038 188.63316000000003 L 572.85792 134.52982000000003 C 570.52606 142.33203000000003 565.19077 157.38382000000001 552.9812800000001 185.42022000000003 C 537.52467 220.91331 543.29325 248.64809 558.92846 269.50927 Z" stroke-linecap="round" />
</g>
<g transform="matrix(1 0 0 1 868.94 486.41)"  >
<path style="stroke: none; stroke-width: 1; stroke-dasharray: none; stroke-linecap: butt; stroke-dashoffset: 0; stroke-linejoin: miter; stroke-miterlimit: 4; fill: rgb(0,0,0); fill-rule: nonzero; opacity: 0.1;" vector-effect="non-scaling-stroke"  transform=" translate(-928.94, -396.41)" d="M 913.62886 386.22612 C 888.5621 357.81712 847.6633400000001 348.33957 824.94331 345.19721 L 818.15464 360.71439 C 818.15464 360.71439 887.2318799999999 362.3209 923.37694 403.28524999999996 C 943.42094 426.00185999999997 980.00967 439.82262 1008.6339399999999 447.63124999999997 L 1039.7349399999998 439.23897999999997 C 1039.7349399999998 439.23897999999997 949.77391 427.19055 913.62886 386.22612 Z" stroke-linecap="round" />
</g>
<g transform="matrix(1 0 0 1 335.84 418.2)"  >
<path style="stroke: none; stroke-width: 1; stroke-dasharray: none; stroke-linecap: butt; stroke-dashoffset: 0; stroke-linejoin: miter; stroke-miterlimit: 4; fill: rgb(0,0,0); fill-rule: nonzero; opacity: 0.1;" vector-effect="non-scaling-stroke"  transform=" translate(-395.84, -328.2)" d="M 422.16518 375.17244 C 455.90059 360.71439 409.31371 279.58882 409.31371 279.58882 L 408.03928 279.0047 C 419.65364 303.50951000000003 436.49799 347.79294000000004 412.4171 358.1133 C 389.8839 367.77043 368.7871 343.74442999999997 357.25902 326.72202999999996 C 357.67758000000003 327.92596 357.90739 328.58548999999994 357.90739 328.58548999999994 C 357.90739 328.58548999999994 388.42978 389.63049 422.16518 375.17244 Z" stroke-linecap="round" />
</g>
<g transform="matrix(1 0 0 1 431.77 486.8)"  >
<path style="stroke: none; stroke-width: 1; stroke-dasharray: none; stroke-linecap: butt; stroke-dashoffset: 0; stroke-linejoin: miter; stroke-miterlimit: 4; fill: rgb(0,0,0); fill-rule: nonzero; opacity: 0.1;" vector-effect="non-scaling-stroke"  transform=" translate(-491.77, -396.8)" d="M 532.20693 427.382 C 532.20693 427.382 542.3722300000001 396.04836 523.2756 376.70244 C 527.9585000000001 393.36867 522.4588500000001 410.32286000000005 522.4588500000001 410.32286000000005 C 510.0317500000001 382.3620700000001 467.3305100000001 370.26547000000005 448.6267100000001 366.21994000000007 C 449.35214000000013 375.52900000000005 449.4748500000001 381.59827000000007 449.4748500000001 381.59827000000007 C 449.4748500000001 381.59827000000007 516.14244 391.23693 532.20693 427.382 Z" stroke-linecap="round" />
</g>
<g transform="matrix(1 0 0 1 513.76 220.66)"  >
<path style="stroke: none; stroke-width: 1; stroke-dasharray: none; stroke-linecap: butt; stroke-dashoffset: 0; stroke-linejoin: miter; stroke-miterlimit: 4; fill: rgb(0,0,0); fill-rule: nonzero; opacity: 0.1;" vector-effect="non-scaling-stroke"  transform=" translate(-573.76, -130.66)" d="M 572.85788 134.5298 C 574.66794 128.47332 574.66839 126.78484999999999 574.66839 126.78484999999999 Z" stroke-linecap="round" />
</g>
<g transform="matrix(1 0 0 1 152.87 481.98)"  >
<path style="stroke: none; stroke-width: 1; stroke-dasharray: none; stroke-linecap: butt; stroke-dashoffset: 0; stroke-linejoin: miter; stroke-miterlimit: 4; fill: rgb(0,0,0); fill-rule: nonzero; opacity: 0.1;" vector-effect="non-scaling-stroke"  transform=" translate(-212.87, -391.98)" d="M 171.87524 456.45151 C 172.03724 456.39938 172.20173 456.3517 172.36266999999998 456.29807999999997 C 206.09806999999998 445.05289999999997 235.01417999999998 402.48202999999995 264.7335 388.02407999999997 C 294.45282 373.56613 312.12359 354.28866999999997 352.28472 375.17245999999994 C 352.28472 375.17245999999994 345.25866 346.41275999999993 331.64324 327.51797999999997 C 336.1529481632265 337.3819592387031 339.79776959002606 347.6188410591999 342.53665 358.11332000000004 C 302.37551 337.22954 284.70459 356.50689 254.98542 370.96494 C 225.2661 385.42294000000004 196.35 427.99378 162.61459000000002 439.23894 C 128.87918000000005 450.4841 73.45678000000002 427.99375000000003 73.45678000000002 427.99375000000003 C 73.45678000000002 427.99375000000003 110.40505000000002 451.28726000000006 157.79529000000002 455.30335 C 163.21641 455.76275 167.84205 456.16815 171.87524 456.45151 Z" stroke-linecap="round" />
</g>
<g transform="matrix(1 0 0 1 455.26 773.44)"  >
<path style="stroke: none; stroke-width: 1; stroke-dasharray: none; stroke-linecap: butt; stroke-dashoffset: 0; stroke-linejoin: miter; stroke-miterlimit: 4; fill: rgb(0,0,0); fill-rule: nonzero; opacity: 0.1;" vector-effect="non-scaling-stroke"  transform=" translate(-515.26, -683.44)" d="M 506.749 846.47337 C 521.46631 801.3573700000001 556.86021 676.5995600000001 528.99409 593.6492700000001 C 516.95997 557.8265500000001 505.80552 534.9834300000001 496.3759 520.4103300000002 C 503.4277 534.2057300000001 511.13754 552.4533300000002 519.24601 576.5901400000001 C 553.7846 679.40278 491.1331 846.47337 491.1331 846.47337 Z" stroke-linecap="round" />
</g>
<g transform="matrix(1 0 0 1 249.66 575.75)"  >
<path style="stroke: none; stroke-width: 1; stroke-dasharray: none; stroke-linecap: butt; stroke-dashoffset: 0; stroke-linejoin: miter; stroke-miterlimit: 4; fill: rgb(0,0,0); fill-rule: nonzero; opacity: 0.1;" vector-effect="non-scaling-stroke"  transform=" translate(-309.66, -485.75)" d="M 193.06752 504.335 C 202.91509193991442 505.33450234732607 212.50031401773802 508.10883060140577 221.35933999999997 512.52373 C 254.34612 529.01704 278.82088 539.47723 308.62216 527.32857 C 315.41097 523.74228 323.0045 519.30444 331.76164 514.02106 C 332.44438 513.5228400000001 333.12057 513.04463 333.81074 512.52373 C 376.38153 480.39473 435.01695 438.62711 492.04564000000005 463.52705000000003 C 492.04564000000005 463.52705000000003 480.51992000000007 452.22616000000005 467.59988000000004 441.49526000000003 C 415.32906 428.67258000000004 362.98238000000003 466.09117000000003 324.06266000000005 495.46459000000004 C 281.49172000000004 527.5935900000001 253.37899000000004 516.34838 211.61126000000004 495.46459000000004 C 169.84353000000004 474.58080000000007 127.27276000000005 497.87424000000004 127.27276000000005 497.87424000000004 C 158.30727 496.94316 178.305 499.73114 193.06752 504.335 Z" stroke-linecap="round" />
</g>
<g transform="matrix(1 0 0 1 216.25 237.61)"  >
<path style="stroke: none; stroke-width: 1; stroke-dasharray: none; stroke-linecap: butt; stroke-dashoffset: 0; stroke-linejoin: miter; stroke-miterlimit: 4; fill: rgb(0,0,0); fill-rule: nonzero; opacity: 0.1;" vector-effect="non-scaling-stroke"  transform=" translate(-276.25, -147.61)" d="M 274.59744 145.49371 C 275.5136594673007 147.0365947864244 276.62374688445504 148.4557575120132 277.9006 149.71654999999998 C 276.96277889223444 148.1885545322888 275.85464015726507 146.77188304935183 274.59744 145.49371 Z" stroke-linecap="round" />
</g>
<g transform="matrix(1 0 0 1 323.29 348.07)"  >
<path style="stroke: none; stroke-width: 1; stroke-dasharray: none; stroke-linecap: butt; stroke-dashoffset: 0; stroke-linejoin: miter; stroke-miterlimit: 4; fill: rgb(0,0,0); fill-rule: nonzero; opacity: 0.1;" vector-effect="non-scaling-stroke"  transform=" translate(-383.29, -258.07)" d="M 421.362 276.376 C 422.60351844028594 277.55003960549385 423.76675795768307 278.8041839341243 424.84424 280.13036999999997 C 421.32570000000004 271.67204999999996 416.98060000000004 264.3581 411.61392 259.31687 C 385.10761 234.41687 341.73346000000004 236.02336 341.73346000000004 236.02336 L 396.12909 260.95468999999997 C 405.44995470570876 264.431928804712 414.0161221183581 269.66721570512755 421.36199999999997 276.3759999999999 Z" stroke-linecap="round" />
</g>
<g transform="matrix(1 0 0 1 412.13 277.26)"  >
<path style="stroke: none; stroke-width: 1; stroke-dasharray: none; stroke-linecap: butt; stroke-dashoffset: 0; stroke-linejoin: miter; stroke-miterlimit: 4; fill: rgb(0,0,0); fill-rule: nonzero; opacity: 0.1;" vector-effect="non-scaling-stroke"  transform=" translate(-472.13, -187.26)" d="M 479.0847 167.74928 C 482.3627 172.48402 480.52097 192.57753 477.52854 213.12776 C 471.41368 255.12254 478.00794 298.12476 497.44593000000003 335.84895 C 500.0047234545746 340.91171446943247 502.86263862232875 345.817662259926 506.00451000000004 350.54076 C 487.49527000000006 313.38975999999997 481.28908 271.30699 487.27661000000006 230.18689999999998 C 490.2690400000001 209.63666999999998 492.11079000000007 189.54315999999997 488.83277000000004 184.80841999999998 C 481.60382000000004 174.36652999999998 451.08128000000005 110.10858999999998 448.67163000000005 93.24087999999999 C 447.9491665009963 86.69700639366494 447.78083458855514 80.10379462523161 448.16843000000006 73.53158000000002 C 441.92908000000006 55.82845999999999 441.33321000000007 23.97220999999999 441.33321000000007 23.97220999999999 C 441.33321000000007 23.97220999999999 436.51391000000007 59.31411999999999 438.92356000000007 76.18175 C 441.33321000000007 93.04938 471.85574 157.30739 479.0847 167.74928 Z" stroke-linecap="round" />
</g>
<g transform="matrix(1 0 0 1 493.71 144.4)"  >
<path style="stroke: none; stroke-width: 1; stroke-dasharray: none; stroke-linecap: butt; stroke-dashoffset: 0; stroke-linejoin: miter; stroke-miterlimit: 4; fill: rgb(0,0,0); fill-rule: nonzero; opacity: 0.1;" vector-effect="non-scaling-stroke"  transform=" translate(-553.71, -54.4)" d="M 554.43937 56.70657 C 554.1175307502622 55.11900367937298 553.6287717115622 53.56990638723791 552.9812400000001 52.085099999999976 C 552.9812400000001 52.0851 553.59852 53.81863 554.43937 56.70657 Z" stroke-linecap="round" />
</g>
<g transform="matrix(1 0 0 1 208.76 222.85)"  >
<path style="stroke: none; stroke-width: 1; stroke-dasharray: none; stroke-linecap: butt; stroke-dashoffset: 0; stroke-linejoin: miter; stroke-miterlimit: 4; fill: rgb(0,0,0); fill-rule: nonzero; opacity: 0.1;" vector-effect="non-scaling-stroke"  transform=" translate(-268.76, -132.85)" d="M 270.73739 137.60166 C 277.81639 138.46824 285.95924 140.64020000000002 292.17049000000003 145.67733 C 291.76531000000006 144.30695 291.4119 143.07848 291.13049 142.04612 C 283.90139 115.53974 245.34669000000002 120.35912 245.34669000000002 120.35912 C 262.77008 122.59288 267.27047 130.04517 270.73739 137.60166 Z" stroke-linecap="round" />
</g>
<g transform="matrix(1 0 0 1 425.35 898.1)"  >
<path style="stroke: none; stroke-width: 1; stroke-dasharray: none; stroke-linecap: butt; stroke-dashoffset: 0; stroke-linejoin: miter; stroke-miterlimit: 4; fill: rgb(63,61,86); fill-rule: nonzero; opacity: 1;" vector-effect="non-scaling-stroke"  transform=" translate(-485.35, -808.1)" d="M 470.37569 812.15391 C 476.10263000000003 833.32415 495.71869000000004 846.43541 495.71869000000004 846.43541 C 495.71869000000004 846.43541 506.04956000000004 825.22293 500.32261000000005 804.0527000000001 C 494.59566000000007 782.8824700000001 474.97961000000004 769.7712 474.97961000000004 769.7712 C 474.97961000000004 769.7712 464.64874 790.98367 470.37569 812.15391 Z" stroke-linecap="round" />
</g>
<g transform="matrix(1 0 0 1 407.97 908.72)"  >
<path style="stroke: none; stroke-width: 1; stroke-dasharray: none; stroke-linecap: butt; stroke-dashoffset: 0; stroke-linejoin: miter; stroke-miterlimit: 4; fill: rgb(0,0,0); fill-rule: nonzero; opacity: 1;" vector-effect="non-scaling-stroke"  transform=" translate(-467.97, -818.72)" d="M 478.791 807.6042 C 494.50583 822.9019499999999 496.42528 846.41815 496.42528 846.41815 C 496.42528 846.41815 472.86596 845.1318 457.15114 829.8340499999999 C 441.43632 814.5362999999999 439.51686 791.02005 439.51686 791.02005 C 439.51686 791.02005 463.07621 792.30645 478.791 807.6042 Z" stroke-linecap="round" />
</g>
<g transform="matrix(1 0 0 1 351.22 322.65)"  >
<path style="stroke: none; stroke-width: 1; stroke-dasharray: none; stroke-linecap: butt; stroke-dashoffset: 0; stroke-linejoin: miter; stroke-miterlimit: 4; fill: rgb(0,0,0); fill-rule: nonzero; opacity: 1;" vector-effect="non-scaling-stroke"  transform=" translate(-411.22, -232.65)" d="M 426.70525 233.61267 C 425.33909 255.50126 408.75 272.2792 408.75 272.2792 C 408.75 272.2792 394.37593 253.56872 395.7421 231.68012 C 397.10827 209.79151999999996 413.69732 193.0136 413.69732 193.0136 C 413.69732 193.0136 428.07142 211.72408 426.70525 233.61267 Z" stroke-linecap="round" />
</g>
<g transform="matrix(1 0 0 1 185.51 198.36)"  >
<path style="stroke: none; stroke-width: 1; stroke-dasharray: none; stroke-linecap: butt; stroke-dashoffset: 0; stroke-linejoin: miter; stroke-miterlimit: 4; fill: rgb(0,0,0); fill-rule: nonzero; opacity: 1;" vector-effect="non-scaling-stroke"  transform=" translate(-245.51, -108.36)" d="M 253.779 95.23684 C 272.33092999999997 106.93311 279.09758999999997 129.53639 279.09758999999997 129.53639 C 279.09758999999997 129.53639 255.78558999999996 133.17626 237.23370999999997 121.47999000000002 C 218.68183 109.78372000000002 211.91511999999997 87.18043000000002 211.91511999999997 87.18043000000002 C 211.91511999999997 87.18043000000002 235.2271 83.54056 253.779 95.23684 Z" stroke-linecap="round" />
</g>
<g transform="matrix(1 0 0 1 144.08 465.21)"  >
<path style="stroke: none; stroke-width: 1; stroke-dasharray: none; stroke-linecap: butt; stroke-dashoffset: 0; stroke-linejoin: miter; stroke-miterlimit: 4; fill: rgb(0,0,0); fill-rule: nonzero; opacity: 1;" vector-effect="non-scaling-stroke"  transform=" translate(-204.08, -375.21)" d="M 212.3497 362.09045 C 230.90162 373.78673 237.66828 396.39 237.66828 396.39 C 237.66828 396.39 214.35633 400.02986999999996 195.80440000000002 388.33358999999996 C 177.25247000000002 376.63730999999996 170.48581000000001 354.03403999999995 170.48581000000001 354.03403999999995 C 170.48581000000001 354.03403999999995 193.79777 350.39418 212.3497 362.09045 Z" stroke-linecap="round" />
</g>
<g transform="matrix(1 0 0 1 242.78 567.57)"  >
<path style="stroke: none; stroke-width: 1; stroke-dasharray: none; stroke-linecap: butt; stroke-dashoffset: 0; stroke-linejoin: miter; stroke-miterlimit: 4; fill: rgb(0,0,0); fill-rule: nonzero; opacity: 1;" vector-effect="non-scaling-stroke"  transform=" translate(-302.78, -477.57)" d="M 311.049 464.44526 C 329.60092999999995 476.14154 336.36758 498.74482 336.36758 498.74482 C 336.36758 498.74482 313.05557999999996 502.38469 294.5037 490.68842 C 275.95182 478.99215000000004 269.18512 456.38886 269.18512 456.38886 C 269.18512 456.38886 292.49705 452.749 311.049 464.44526 Z" stroke-linecap="round" />
</g>
<g transform="matrix(1 0 0 1 514.5 220.29)"  >
<path style="stroke: none; stroke-width: 1; stroke-dasharray: none; stroke-linecap: butt; stroke-dashoffset: 0; stroke-linejoin: miter; stroke-miterlimit: 4; fill: rgb(0,0,0); fill-rule: nonzero; opacity: 1;" vector-effect="non-scaling-stroke"  transform=" translate(-574.5, -130.29)" d="M 589.50244 134.24869 C 583.9077 155.45425 564.3738 168.68769 564.3738 168.68769 C 564.3738 168.68769 553.9108 147.54008 559.5055199999999 126.33452 C 565.1002399999999 105.12896 584.6341699999999 91.89552 584.6341699999999 91.89552 C 584.6341699999999 91.89552 595.09719 113.04313 589.50244 134.24869 Z" stroke-linecap="round" />
</g>
<g transform="matrix(1 0 0 1 691.19 236.13)"  >
<path style="stroke: none; stroke-width: 1; stroke-dasharray: none; stroke-linecap: butt; stroke-dashoffset: 0; stroke-linejoin: miter; stroke-miterlimit: 4; fill: rgb(0,0,0); fill-rule: nonzero; opacity: 1;" vector-effect="non-scaling-stroke"  transform=" translate(-751.19, -146.13)" d="M 765.98589 150.78317 C 759.4101400000001 171.70532 739.28143 184.01512000000002 739.28143 184.01512000000002 C 739.28143 184.01512000000002 729.81412 162.40341000000004 736.38988 141.48126000000002 C 742.9656399999999 120.55911 763.0943299999999 108.24931000000002 763.0943299999999 108.24931000000002 C 763.0943299999999 108.24931000000002 772.56164 129.861 765.98589 150.78317 Z" stroke-linecap="round" />
</g>
<g transform="matrix(1 0 0 1 883.71 465.21)"  >
<path style="stroke: none; stroke-width: 1; stroke-dasharray: none; stroke-linecap: butt; stroke-dashoffset: 0; stroke-linejoin: miter; stroke-miterlimit: 4; fill: rgb(0,0,0); fill-rule: nonzero; opacity: 1;" vector-effect="non-scaling-stroke"  transform=" translate(-943.71, -375.21)" d="M 956.73676 383.63692 C 944.82523 402.05138 922.14468 408.55436 922.14468 408.55436 C 922.14468 408.55436 918.77654 385.2016 930.68806 366.78713 C 942.59958 348.37266 965.28014 341.86969999999997 965.28014 341.86969999999997 C 965.28014 341.86969999999997 968.64828 365.22246 956.73676 383.63692 Z" stroke-linecap="round" />
</g>
<g transform="matrix(1 0 0 1 586.43 647.55)"  >
<path style="stroke: none; stroke-width: 1; stroke-dasharray: none; stroke-linecap: butt; stroke-dashoffset: 0; stroke-linejoin: miter; stroke-miterlimit: 4; fill: rgb(255,185,185); fill-rule: nonzero; opacity: 1;" vector-effect="non-scaling-stroke"  transform=" translate(-646.43, -557.55)" d="M 657.27347 534.21122 C 657.27347 534.21122 655.36016 541.22671 659.18679 543.77779 C 663.01342 546.3288699999999 664.28896 558.44654 664.28896 558.44654 L 656.6357 579.493 L 636.2270000000001 583.3196300000001 L 628.57374 568.65088 L 628.57374 546.96665 C 628.57374 546.96665 631.1248300000001 536.1245299999999 630.48706 532.93565 C 629.84929 529.7467700000001 657.27347 534.21122 657.27347 534.21122 Z" stroke-linecap="round" />
</g>
<g transform="matrix(1 0 0 1 586.43 647.55)"  >
<path style="stroke: none; stroke-width: 1; stroke-dasharray: none; stroke-linecap: butt; stroke-dashoffset: 0; stroke-linejoin: miter; stroke-miterlimit: 4; fill: rgb(0,0,0); fill-rule: nonzero; opacity: 0.2;" vector-effect="non-scaling-stroke"  transform=" translate(-646.43, -557.55)" d="M 657.27347 534.21122 C 657.27347 534.21122 655.36016 541.22671 659.18679 543.77779 C 663.01342 546.3288699999999 664.28896 558.44654 664.28896 558.44654 L 656.6357 579.493 L 636.2270000000001 583.3196300000001 L 628.57374 568.65088 L 628.57374 546.96665 C 628.57374 546.96665 631.1248300000001 536.1245299999999 630.48706 532.93565 C 629.84929 529.7467700000001 657.27347 534.21122 657.27347 534.21122 Z" stroke-linecap="round" />
</g>
<g transform="matrix(1 0 0 1 597.3 826.43)"  >
<path style="stroke: none; stroke-width: 1; stroke-dasharray: none; stroke-linecap: butt; stroke-dashoffset: 0; stroke-linejoin: miter; stroke-miterlimit: 4; fill: rgb(47,46,65); fill-rule: nonzero; opacity: 1;" vector-effect="non-scaling-stroke"  transform=" translate(-657.3, -736.43)" d="M 677.68217 654.75007 L 694.26423 657.93893 C 694.26423 657.93893 695.53977 676.43431 694.26423 680.89871 C 692.98869 685.3631100000001 691.71314 690.4652900000001 692.98869 691.7408300000001 C 694.2642400000001 693.01637 687.24869 725.5427300000001 687.88651 727.45604 C 688.5243300000001 729.3693499999999 689.79983 735.1093000000001 689.16206 738.93593 C 688.52429 742.7625599999999 686.61097 741.48702 687.88651 745.3136499999999 C 689.1620500000001 749.1402799999998 690.4376000000001 749.7780499999999 689.16206 752.3291399999999 C 687.8865199999999 754.88023 681.5088 816.7440799999999 679.59548 817.38185 C 677.68216 818.01962 660.46233 818.6573999999999 660.46233 817.38185 C 660.46233 816.1063 666.20227 806.5397399999999 664.28896 803.98865 C 662.37565 801.4375600000001 664.92673 758.06909 664.92673 756.15577 C 664.92673 754.24245 668.75336 751.0536 666.84005 749.77805 C 664.92674 748.5025 663.65119 747.22697 664.28896 745.31365 C 664.9267299999999 743.40033 666.20227 742.7625700000001 664.92673 740.8492500000001 C 663.65119 738.9359300000001 663.65119 700.6696300000001 659.18679 699.3940900000001 C 659.18679 699.3940900000001 653.44679 727.4560900000001 655.36016 734.4715300000001 C 657.2735299999999 741.4869700000002 654.7223799999999 744.0381100000002 654.7223799999999 744.0381100000002 L 663.6511899999999 751.6913700000002 L 651.5335299999999 774.6511500000003 L 638.77809 759.9824 C 638.77809 759.9824 638.77809 756.15577 636.227 755.518 C 633.6759099999999 754.8802300000001 632.40037 754.24246 632.40037 752.32914 C 632.40037 750.41582 627.93597 738.2981400000001 627.93597 738.2981400000001 C 627.93597 738.2981400000001 615.18054 698.1185300000001 621.55826 677.7098300000001 C 627.9359800000001 657.3011300000002 630.39296 657.9766600000002 630.39296 657.9766600000002 Z" stroke-linecap="round" />
</g>
<g transform="matrix(1 0 0 1 626.29 891.12)"  >
<polygon style="stroke: none; stroke-width: 1; stroke-dasharray: none; stroke-linecap: butt; stroke-dashoffset: 0; stroke-linejoin: miter; stroke-miterlimit: 4; fill: rgb(255,185,185); fill-rule: nonzero; opacity: 1;" vector-effect="non-scaling-stroke"  points="1.59,-14.35 8.61,-6.7 6.06,14.35 0.32,14.35 -8.61,-5.42 1.59,-14.35 " />
</g>
<g transform="matrix(1 0 0 1 631.03 905.14)"  >
<path style="stroke: none; stroke-width: 1; stroke-dasharray: none; stroke-linecap: butt; stroke-dashoffset: 0; stroke-linejoin: miter; stroke-miterlimit: 4; fill: rgb(47,46,65); fill-rule: nonzero; opacity: 1;" vector-effect="non-scaling-stroke"  transform=" translate(-691.03, -815.14)" d="M 692.35091 800.79979 C 692.35091 800.79979 689.79983 806.53979 687.88651 805.26419 C 685.97319 803.9885899999999 685.3389900000001 802.07533 682.4672400000001 802.07533 C 679.59549 802.07533 677.04439 802.71311 677.68217 803.98865 C 678.3199500000001 805.26419 685.9731700000001 819.29517 685.9731700000001 819.29517 C 688.2466528492407 824.1440824223396 688.2466528492407 829.7527775776604 685.9731700000001 834.60169 C 682.1465400000001 842.89269 696.1775100000001 847.35712 698.7286000000001 838.42832 C 701.2796900000002 829.49952 701.9174600000001 819.29517 701.2796900000002 815.46854 C 700.6419200000003 811.6419099999999 704.4685500000002 791.87099 704.4685500000002 791.87099 C 704.4685500000002 791.87099 694.1654500000002 787.12122 691.0259700000001 786.94499 C 691.026 786.945 693.62646 798.2487 692.35091 800.79979 Z" stroke-linecap="round" />
</g>
<g transform="matrix(1 0 0 1 611.06 920.81)"  >
<path style="stroke: none; stroke-width: 1; stroke-dasharray: none; stroke-linecap: butt; stroke-dashoffset: 0; stroke-linejoin: miter; stroke-miterlimit: 4; fill: rgb(47,46,65); fill-rule: nonzero; opacity: 1;" vector-effect="non-scaling-stroke"  transform=" translate(-671.06, -830.81)" d="M 675.13108 814.83077 L 677.68217 822.4840300000001 C 677.68217 822.4840300000001 677.68217 830.1372900000001 680.23325 833.96392 C 682.78433 837.7905499999999 685.33543 846.08158 675.13108 846.7193500000001 C 664.92673 847.3571200000001 660.46233 843.5304900000001 660.46233 843.5304900000001 C 660.46233 843.5304900000001 662.37564 838.4283200000001 660.46233 836.5150100000001 C 658.5490199999999 834.6017 660.46233 830.77506 660.46233 830.77506 L 662.37564 815.4685400000001 Z" stroke-linecap="round" />
</g>
<g transform="matrix(1 0 0 1 610.99 866.56)"  >
<path style="stroke: none; stroke-width: 1; stroke-dasharray: none; stroke-linecap: butt; stroke-dashoffset: 0; stroke-linejoin: miter; stroke-miterlimit: 4; fill: rgb(47,46,65); fill-rule: nonzero; opacity: 1;" vector-effect="non-scaling-stroke"  transform=" translate(-670.99, -776.56)" d="M 657.91124 751.0536 L 663.65124 751.0536 L 692.35096 788.6821299999999 C 692.35096 788.6821299999999 687.24879 800.7997899999999 679.5955299999999 802.0753299999999 C 679.5955299999999 802.0753299999999 678.31999 801.4375599999998 672.5800399999999 797.6109299999999 C 666.8400899999999 793.7843 651.5335799999999 774.6511499999999 651.5335799999999 774.6511499999999 L 649.62021 763.809 Z" stroke-linecap="round" />
</g>
<g transform="matrix(1 0 0 1 583.88 612.09)"  >
<circle style="stroke: none; stroke-width: 1; stroke-dasharray: none; stroke-linecap: butt; stroke-dashoffset: 0; stroke-linejoin: miter; stroke-miterlimit: 4; fill: rgb(255,185,185); fill-rule: nonzero; opacity: 1;" vector-effect="non-scaling-stroke"  cx="0" cy="0" r="20.40869" />
</g>
<g transform="matrix(1 0 0 1 591.21 697.32)"  >
<path style="stroke: none; stroke-width: 1; stroke-dasharray: none; stroke-linecap: butt; stroke-dashoffset: 0; stroke-linejoin: miter; stroke-miterlimit: 4; fill: rgb(0,0,0); fill-rule: nonzero; opacity: 1;" vector-effect="non-scaling-stroke"  transform=" translate(-651.21, -607.32)" d="M 668.75336 548.2422 L 662.3756400000001 545.69111 C 662.3756400000001 545.69111 661.73787 568.01311 649.62021 568.01311 C 637.50255 568.01311 624.74711 564.82425 624.74711 558.4465299999999 C 624.74711 552.0688099999999 614.54277 569.9264199999999 614.54277 569.9264199999999 C 614.54277 569.9264199999999 624.10934 633.7035899999998 623.47157 634.3413699999999 C 622.8338000000001 634.9791499999999 630.48706 668.7810399999998 630.48706 668.7810399999998 C 630.48706 668.7810399999998 663.01342 670.0565799999998 673.85553 665.5921799999999 C 684.6976400000001 661.1277799999999 687.88653 652.8367399999998 687.88653 652.8367399999998 L 683.42213 596.7128299999998 L 674.49333 553.3443599999998 Z" stroke-linecap="round" />
</g>
<g transform="matrix(1 0 0 1 617.49 697.94)"  >
<path style="stroke: none; stroke-width: 1; stroke-dasharray: none; stroke-linecap: butt; stroke-dashoffset: 0; stroke-linejoin: miter; stroke-miterlimit: 4; fill: rgb(87,90,137); fill-rule: nonzero; opacity: 1;" vector-effect="non-scaling-stroke"  transform=" translate(-677.49, -607.94)" d="M 657.91493 542.50225 C 657.91493 542.50225 660.4623300000001 539.95116 664.28893 542.50225 C 668.11553 545.05334 691.71311 550.7932500000001 691.71311 552.7066 L 691.71311 576.94192 C 691.71311 576.94192 692.3508800000001 580.76855 690.43757 583.3196399999999 C 688.52426 585.8707299999999 684.0598500000001 595.4372999999999 686.61094 599.9016999999999 C 689.16203 604.3660999999998 698.7286 656.0256099999999 696.81529 662.4033299999999 C 694.90198 668.7810499999998 689.7998 674.5209899999999 689.7998 674.5209899999999 C 689.7998 674.5209899999999 662.37561 616.4837699999998 662.37561 599.9016999999999 C 662.37561 583.31963 662.6417700000001 562.9762299999999 662.6417700000001 562.9762299999999 Z" stroke-linecap="round" />
</g>
<g transform="matrix(1 0 0 1 638.09 695.66)"  >
<path style="stroke: none; stroke-width: 1; stroke-dasharray: none; stroke-linecap: butt; stroke-dashoffset: 0; stroke-linejoin: miter; stroke-miterlimit: 4; fill: rgb(87,90,137); fill-rule: nonzero; opacity: 1;" vector-effect="non-scaling-stroke"  transform=" translate(-698.09, -605.66)" d="M 685.9732 553.34437 L 691.7131400000001 553.34437 C 691.7131400000001 553.34437 713.3973800000001 594.79953 713.3973800000001 603.09056 C 713.3973800000001 611.38159 699.3663800000002 657.30116 698.0908600000001 657.93893 C 696.8153400000001 658.5767000000001 692.9886900000001 650.92344 692.9886900000001 650.92344 L 689.7998300000002 625.4125700000001 C 689.7998300000002 625.4125700000001 696.1775400000001 610.1060500000001 694.2642300000001 607.55496 C 692.3509200000001 605.00387 682.7843400000002 585.23296 682.7843400000002 585.23296 Z" stroke-linecap="round" />
</g>
<g transform="matrix(1 0 0 1 564.76 700.17)"  >
<path style="stroke: none; stroke-width: 1; stroke-dasharray: none; stroke-linecap: butt; stroke-dashoffset: 0; stroke-linejoin: miter; stroke-miterlimit: 4; fill: rgb(87,90,137); fill-rule: nonzero; opacity: 1;" vector-effect="non-scaling-stroke"  transform=" translate(-624.76, -610.17)" d="M 629.51692 542.50225 C 629.51692 542.50225 622.1960300000001 547.60442 620.92048 549.51774 C 619.6449299999999 551.43106 600.51179 562.27317 599.87402 564.82426 C 599.2362499999999 567.3753499999999 614.54277 589.05958 614.54277 589.05958 C 614.54277 589.05958 620.92048 624.7748 620.92048 627.32589 C 620.92048 629.8769799999999 623.47157 673.24545 623.47157 673.24545 C 623.47157 673.24545 649.62021 680.89871 649.62021 676.43431 C 649.62021 671.9699099999999 650.2579800000001 608.19274 646.4313500000001 594.16176 C 642.60472 580.13078 629.51692 542.50225 629.51692 542.50225 Z" stroke-linecap="round" />
</g>
<g transform="matrix(1 0 0 1 575.99 778.88)"  >
<path style="stroke: none; stroke-width: 1; stroke-dasharray: none; stroke-linecap: butt; stroke-dashoffset: 0; stroke-linejoin: miter; stroke-miterlimit: 4; fill: rgb(255,185,185); fill-rule: nonzero; opacity: 1;" vector-effect="non-scaling-stroke"  transform=" translate(-635.99, -688.88)" d="M 633.67592 674.521 C 633.67592 674.521 655.3601600000001 703.8584999999999 643.88026 703.22073 C 632.40036 702.5829600000001 624.74711 677.70986 624.74711 677.70986 Z" stroke-linecap="round" />
</g>
<g transform="matrix(1 0 0 1 557.47 713.53)"  >
<path style="stroke: none; stroke-width: 1; stroke-dasharray: none; stroke-linecap: butt; stroke-dashoffset: 0; stroke-linejoin: miter; stroke-miterlimit: 4; fill: rgb(87,90,137); fill-rule: nonzero; opacity: 1;" vector-effect="non-scaling-stroke"  transform=" translate(-617.47, -623.53)" d="M 607.52728 562.91094 L 599.87402 564.82426 C 599.87402 564.82426 593.4963 620.94817 597.3229299999999 628.6014299999999 C 601.1495599999998 636.2546899999999 621.5582599999999 686.0008799999999 621.5582599999999 684.0875699999999 C 621.5582599999999 682.1742599999999 639.5113699999999 678.7639499999999 638.8258399999999 676.9613599999999 C 638.1403099999998 675.1587699999999 634.3136899999998 667.5054999999999 633.0381499999999 664.9544199999999 C 631.7626099999999 662.40334 629.8492899999999 659.2144199999999 630.4870599999998 656.0256099999999 C 631.1248299999997 652.8367999999999 623.4715699999998 639.1874399999999 623.4715699999998 639.1874399999999 C 623.4715699999998 639.1874399999999 621.5582599999998 631.1525199999999 620.9204799999998 627.32589 C 620.2826999999997 623.49926 614.5427699999998 581.4063199999999 614.5427699999998 581.4063199999999 Z" stroke-linecap="round" />
</g>
<g transform="matrix(1 0 0 1 580.04 597.68)"  >
<path style="stroke: none; stroke-width: 1; stroke-dasharray: none; stroke-linecap: butt; stroke-dashoffset: 0; stroke-linejoin: miter; stroke-miterlimit: 4; fill: rgb(47,46,65); fill-rule: nonzero; opacity: 1;" vector-effect="non-scaling-stroke"  transform=" translate(-640.04, -507.68)" d="M 663.8906 506.295 C 663.5006065486053 505.09487378556906 662.6771987917379 504.08324998419806 661.58123 503.45775000000003 C 661.6384484485657 502.1907553536414 661.47342431095 500.92352498301886 661.09363 499.71344000000005 C 659.82326 496.17844 656.8137899999999 496.38108000000005 653.9742699999999 494.81821 C 652.74227 494.14013 652.81841 493.54082 652.1770799999999 492.42709 C 651.3161683090732 490.947259527569 650.0575141708682 489.73851502744543 648.5440799999999 488.93815 C 646.7926643707664 487.6951180642459 644.7701552239674 486.8875123790748 642.6442599999999 486.58230000000003 C 638.1152599999999 486.29175000000004 634.6429099999999 490.3013 630.3142099999999 491.58809 C 628.4062099999999 492.15525 626.3560399999999 492.17863 624.4379899999999 492.71483 C 622.5199399999999 493.25103 620.6063199999999 494.53135000000003 620.3204599999999 496.39531 C 620.18846 497.25584 620.42131 498.13863 620.2874599999999 498.99892 C 620.0213599999998 500.70879 618.4275799999999 501.90631 617.3606599999999 503.31269 C 615.00131 506.42269 615.27117 510.81627999999995 617.1579399999999 514.2001 C 617.5574869907542 514.9031504806915 618.0124270970459 515.5732416445276 618.5184399999999 516.20401 C 618.6785846801712 517.812189887934 619.1675218708949 519.3703000063107 619.9549099999999 520.78165 C 621.8416799999999 524.16547 625.08836 526.6940500000001 628.4799099999999 528.79481 C 628.2024496621054 527.6746927682124 628.0339786360953 526.5303650620208 627.9768499999999 525.37781 C 627.9291006206436 524.9934178458711 627.982304020704 524.6032170721047 628.1312199999999 524.24564 C 628.5089299999999 523.50248 629.5069599999998 523.30484 630.2679199999999 522.89783 C 631.7444463660686 521.9275992437397 632.596665158851 520.2479281158411 632.5076799999999 518.4834 C 632.5532999999999 516.7776399999999 632.1691999999999 515.0690599999999 632.35907 513.37217 C 632.3798435359405 512.5715075329066 632.7512231052717 511.8203720162639 633.37482 511.31775999999996 C 633.9625736411523 511.0040476056692 634.6243769326243 510.8555341088143 635.28982 510.88802 C 638.51913 510.76401999999996 641.89324 510.70817 644.74168 509.27079 C 645.6660065647252 508.69378845391276 646.652993083681 508.2238483923788 647.68359 507.87003999999996 C 650.1043099999999 507.27586999999994 652.5784199999999 508.87285999999995 653.97354 510.82739999999995 C 655.36866 512.78194 656.06423 515.10786 657.35141 517.1269599999999 C 658.63859 519.1460599999999 660.8623 520.9466199999999 663.35101 520.70741 C 663.6308485981685 520.7095957065342 663.8993976821737 520.5971956082452 664.09425 520.39633 C 664.2011209521288 520.2168810380838 664.2490090123972 520.0084287745722 664.23117 519.80033 L 664.37017 510.84613 C 664.4855628965756 509.3125871377515 664.3230998608441 507.77080930384085 663.8906 506.295 Z" stroke-linecap="round" />
</g>
<g transform="matrix(1 0 0 1 1439.38 897.91)"  >
<ellipse style="stroke: none; stroke-width: 1; stroke-dasharray: none; stroke-linecap: butt; stroke-dashoffset: 0; stroke-linejoin: miter; stroke-miterlimit: 4; fill: rgb(63,61,86); fill-rule: nonzero; opacity: 1;" vector-effect="non-scaling-stroke"  cx="0" cy="0" rx="125.47705" ry="8.93942" />
</g>
<g transform="matrix(1 0 0 1 1255.31 910.01)"  >
<path style="stroke: none; stroke-width: 1; stroke-dasharray: none; stroke-linecap: butt; stroke-dashoffset: 0; stroke-linejoin: miter; stroke-miterlimit: 4; fill: rgb(87,90,137); fill-rule: nonzero; opacity: 1;" vector-effect="non-scaling-stroke"  transform=" translate(-957.29, -858.47)" d="M 958.36552 846.137 C 958.36552 846.137 947.65321 855.1578999999999 942.0151599999999 854.5940899999999 C 936.3771099999999 854.03028 925.6647899999999 854.03028 930.1752399999999 860.2321499999999 C 934.6856899999999 866.4340199999999 953.2912399999999 869.81684 961.18455 870.38065 C 969.07786 870.9444599999999 986.55581 871.50826 985.4282 868.1254299999999 C 984.3005899999999 864.7425999999999 983.17297 848.9560299999999 978.66253 847.8284299999999 C 974.1520899999999 846.7008299999999 958.36552 846.137 958.36552 846.137 Z" stroke-linecap="round" />
</g>
<g transform="matrix(1 0 0 1 1389.41 904.95)"  >
<path style="stroke: none; stroke-width: 1; stroke-dasharray: none; stroke-linecap: butt; stroke-dashoffset: 0; stroke-linejoin: miter; stroke-miterlimit: 4; fill: rgb(87,90,137); fill-rule: nonzero; opacity: 1;" vector-effect="non-scaling-stroke"  transform=" translate(-1023.32, -847.49)" d="M 1019.84842 837.28021 C 1019.84842 837.28021 1011.95466 848.84821 1006.37251 849.82041 C 1000.7903600000001 850.7926100000001 990.47218 853.6716200000001 996.48351 858.43309 C 1002.4948400000001 863.1945599999999 1021.32502 861.45256 1029.07942 859.87425 C 1036.83382 858.29594 1053.82027 854.14167 1051.82498 851.18635 C 1049.8296900000003 848.2310299999999 1044.5008300000002 833.32835 1039.85328 833.45443 C 1035.20573 833.58051 1019.84842 837.28021 1019.84842 837.28021 Z" stroke-linecap="round" />
</g>
<g transform="matrix(1 0 0 1 1424.18 845.87)"  >
<path style="stroke: none; stroke-width: 1; stroke-dasharray: none; stroke-linecap: butt; stroke-dashoffset: 0; stroke-linejoin: miter; stroke-miterlimit: 4; fill: rgb(47,46,65); fill-rule: nonzero; opacity: 1;" vector-effect="non-scaling-stroke"  transform=" translate(-995.96, -755.87)" d="M 952.09041 671.84147 C 952.09041 671.84147 944.8341800000001 721.53595 946.5256 730.55684 C 948.21702 739.57773 949.3446 753.67284 949.3446 753.67284 C 949.3446 753.67284 948.21699 765.51276 949.3446 771.1508399999999 C 950.47221 776.7889199999998 957.23788 830.3504399999999 957.23788 831.4780599999999 C 957.23788 832.6056799999999 956.11027 835.9884999999999 957.23788 838.8075299999999 C 958.36549 841.6265599999999 960.62071 839.3713399999999 957.23788 843.8817799999999 C 953.85505 848.39222 956.11027 849.5198399999999 956.67407 849.5198399999999 C 957.23787 849.5198399999999 979.2263 851.7750599999999 980.35391 849.5198399999999 C 981.48152 847.2646199999999 979.79011 846.70084 980.35391 843.8817799999999 C 980.91771 841.0627199999999 981.48153 840.4989499999999 982.60914 839.9351399999999 C 983.73675 839.37133 985.99197 840.4989499999999 984.30055 837.6799199999999 C 982.60913 834.8608899999999 978.6625 831.4780599999999 979.79011 829.7866399999999 C 980.91772 828.0952199999999 979.2263 815.6914999999999 979.2263 815.6914999999999 C 979.2263 815.6914999999999 978.09869 788.0650199999999 977.53489 771.1508399999999 C 976.97109 754.2366599999999 982.60914 736.7586899999999 982.60914 736.7586899999999 C 983.311366545201 750.5979937267787 988.4513620457485 763.843326289244 997.26814 774.5336899999999 C 1011.92708 792.0116899999998 1019.25656 824.7123999999999 1019.25656 824.7123999999999 C 1019.25656 824.7123999999999 1022.63939 829.7866499999999 1020.94798 834.2970899999999 C 1019.25657 838.8075299999999 1014.18231 835.9885099999999 1019.25656 838.8075399999999 C 1024.33081 841.6265699999999 1041.80879 837.6799299999999 1043.5002 835.98854 C 1045.1916099999999 834.29715 1041.24498 832.0418999999999 1042.37259 827.5314599999999 C 1043.5002 823.0210199999999 1048.01065 824.1486199999999 1044.06401 821.8933999999999 C 1040.1173700000002 819.6381799999999 1038.9897600000002 820.2019799999999 1038.9897600000002 817.9467599999999 C 1038.9897600000002 815.6915399999999 1028.8412600000001 766.6404399999999 1013.0547000000001 752.5452899999999 L 1011.9270800000002 701.2389699999999 C 1011.9270800000002 701.2389699999999 1026.0222300000003 665.1554099999998 1011.3632800000001 661.7725699999999 C 996.70433 658.3897299999999 952.09041 671.84147 952.09041 671.84147 Z" stroke-linecap="round" />
</g>
<g transform="matrix(1 0 0 1 1348.83 645.41)"  >
<path style="stroke: none; stroke-width: 1; stroke-dasharray: none; stroke-linecap: butt; stroke-dashoffset: 0; stroke-linejoin: miter; stroke-miterlimit: 4; fill: rgb(160,97,106); fill-rule: nonzero; opacity: 1;" vector-effect="non-scaling-stroke"  transform=" translate(-979.79, -546.53)" d="M 962.31216 538.29909 C 962.31216 538.29909 971.89686 561.97893 969.6416399999999 565.36177 C 967.3864199999999 568.74461 997.26812 554.08565 997.26812 554.08565 C 997.26812 554.08565 987.68342 530.40581 987.68342 527.58678 C 987.68342 524.76775 962.31216 538.29909 962.31216 538.29909 Z" stroke-linecap="round" />
</g>
<g transform="matrix(1 0 0 1 1255.55 639.99)"  >
<circle style="stroke: none; stroke-width: 1; stroke-dasharray: none; stroke-linecap: butt; stroke-dashoffset: 0; stroke-linejoin: miter; stroke-miterlimit: 4; fill: rgb(160,97,106); fill-rule: nonzero; opacity: 1;" vector-effect="non-scaling-stroke"  cx="0" cy="0" r="20.86081" />
</g>
<g transform="matrix(1 0 0 1 1384.54 701.55)"  >
<path style="stroke: none; stroke-width: 1; stroke-dasharray: none; stroke-linecap: butt; stroke-dashoffset: 0; stroke-linejoin: miter; stroke-miterlimit: 4; fill: rgb(0,0,0); fill-rule: nonzero; opacity: 1;" vector-effect="non-scaling-stroke"  transform=" translate(-985.91, -614.51)" d="M 997.26812 544.501 C 997.26812 544.501 982.60912 542.80958 975.27969 551.83047 C 967.95026 560.85136 966.8226099999999 563.10658 966.8226099999999 563.10658 C 966.8226099999999 563.10658 949.34461 591.29687 952.72746 605.39201 C 953.5519891186902 606.6646076165598 954.3049015969432 607.9822002803555 954.9826899999999 609.33865 C 956.1102999999999 611.59388 956.1102999999999 643.167 954.9826899999999 648.24125 C 953.8550799999999 653.3155 952.72746 655.00692 953.8550799999999 662.33639 C 954.9826999999999 669.6658600000001 944.83418 681.5057800000001 956.6740799999999 683.76101 C 968.5139799999998 686.01624 977.5348999999999 684.3248100000001 981.4815399999999 679.2505600000001 C 985.4281799999999 674.1763100000001 982.0453399999999 670.79348 994.4490699999999 670.79348 C 1002.0446953188266 670.6613331093967 1009.3038419619521 667.6366862904525 1014.7460699999999 662.33639 C 1014.7460699999999 662.33639 1008.5442099999999 655.57072 1010.7994299999999 654.44311 C 1013.0546499999999 653.3155 1010.7994299999999 650.49647 1009.6718199999999 647.67744 C 1008.5442099999999 644.85841 1008.5442099999999 642.60319 1010.2356299999999 642.60319 C 1011.9270499999999 642.60319 1010.7994299999999 641.47558 1009.6718199999999 638.65655 C 1008.5442099999999 635.83752 1029.40502 587.35023 1017.0012999999999 573.25509 C 1004.5975799999999 559.15995 998.3957099999999 551.26666 998.3957099999999 551.26666 C 998.3957099999999 551.26666 1000.651 542.80954 997.26812 544.501 Z" stroke-linecap="round" />
</g>
<g transform="matrix(1 0 0 1 1431.06 745.85)"  >
<path style="stroke: none; stroke-width: 1; stroke-dasharray: none; stroke-linecap: butt; stroke-dashoffset: 0; stroke-linejoin: miter; stroke-miterlimit: 4; fill: rgb(160,97,106); fill-rule: nonzero; opacity: 1;" vector-effect="non-scaling-stroke"  transform=" translate(-967.34, -655.85)" d="M 965.13119 598.0625 L 965.13119 622.87 L 947.0894099999999 682.63341 C 947.0894099999999 682.63341 935.2494899999999 713.64272 947.0894099999999 713.64272 C 958.9293299999999 713.64272 958.295 684.0455 958.295 684.0455 L 983.7367999999999 639.2203199999999 C 983.7367999999999 639.2203199999999 993.8852999999999 603.7005599999999 992.7576899999999 600.8815299999999 C 991.6300799999999 598.0624999999999 965.13119 598.0625 965.13119 598.0625 Z" stroke-linecap="round" />
</g>
<g transform="matrix(1 0 0 1 1344.47 694.68)"  >
<path style="stroke: none; stroke-width: 1; stroke-dasharray: none; stroke-linecap: butt; stroke-dashoffset: 0; stroke-linejoin: miter; stroke-miterlimit: 4; fill: rgb(0,0,0); fill-rule: nonzero; opacity: 1;" vector-effect="non-scaling-stroke"  transform=" translate(-978.38, -583.96)" d="M 974.71589 561.41513 C 974.71589 561.41513 957.8017199999999 568.1808 962.31216 586.22258 C 966.8226 604.26436 962.31216 603.70058 962.31216 603.70058 C 962.31216 603.70058 985.4281599999999 601.44535 992.75767 606.5195799999999 L 994.44909 599.7539199999999 C 994.44909 599.7539199999999 1001.21476 560.85132 974.71589 561.41513 Z" stroke-linecap="round" />
</g>
<g transform="matrix(1 0 0 1 1316.48 630.15)"  >
<path style="stroke: none; stroke-width: 1; stroke-dasharray: none; stroke-linecap: butt; stroke-dashoffset: 0; stroke-linejoin: miter; stroke-miterlimit: 4; fill: rgb(47,46,65); fill-rule: nonzero; opacity: 1;" vector-effect="non-scaling-stroke"  transform=" translate(-977.03, -516.48)" d="M 962.23652 507.69756 C 959.5919377798971 508.6358781229304 956.6525752166533 508.1784739303649 954.41817 506.48092 C 952.2176396121965 504.6863156638408 951.4900579796623 501.641159720443 952.64165 499.04563 C 953.72119 496.92696 956.03027 495.76463 958.24449 494.89779000000004 C 963.1288161409661 492.9872665893284 968.2737338055917 491.82556297200307 973.5051 491.452 C 975.99919 491.27461999999997 978.61862 491.30272 980.84434 492.44208 C 981.94562 493.00581999999997 982.90214 493.81944999999996 983.99283 494.40342 C 985.99834 495.4772 988.3321100000001 495.71594 990.49946 496.40704999999997 C 994.9858776583833 497.8706157585509 998.6168693672234 501.20826327485463 1000.4523 505.55580999999995 C 1001.0415834665631 507.0150064977322 1001.4532066567677 508.5397883917635 1001.6783 510.09729999999996 C 1002.3265385915046 514.3615202150152 1001.873661949009 518.7206713252424 1000.3627 522.7605699999999 C 997.9593600000001 529.1594799999999 992.9187000000001 534.7537299999999 992.63424 541.5831599999999 C 989.54901 539.3448199999999 988.4049699999999 535.3047399999999 985.93261 532.4036799999999 C 984.0932469953613 530.2593290738816 981.5810279629213 528.8021580618782 978.8063999999999 528.27024 C 978.0382286209752 528.2234614772825 977.300224327568 527.9543685678968 976.6822299999999 527.4957199999999 C 976.2518014111974 526.981549689676 975.982033122977 526.3521819250778 975.9064799999999 525.6859 L 973.7954799999999 515.71875 C 973.3658599999999 513.6903 972.8229399999999 511.47875 971.1556899999999 510.24608 C 970.1176519554747 509.5820519723965 968.9400603749754 509.1671845823312 967.71503 509.03393 C 964.8039489611282 508.5251985270135 961.8560033591781 508.2564117200634 958.9009199999999 508.23028" stroke-linecap="round" />
</g>
</svg>